<svg version="1.1" id="Layer_1" xmlns="http://www.w3.org/2000/svg" xmlns:xlink="http://www.w3.org/1999/xlink" x="0px" y="0px"
	 width="100%" viewBox="0 0 1024 1024" enable-background="new 0 0 1024 1024" xml:space="preserve">
<path fill="#000000" opacity="1.000000" stroke="none" 
	d="
M639.143494,672.814819 
	C665.757019,687.421082 694.167236,695.466125 723.485657,700.657715 
	C732.648499,702.280212 741.913696,703.326538 751.135681,704.610840 
	C752.759277,704.836975 754.517761,704.685974 755.386292,706.643311 
	C754.884094,708.775452 752.842285,709.101379 751.300354,709.864990 
	C706.676453,731.962524 662.008240,753.970398 617.397583,776.094543 
	C584.424072,792.447266 551.502808,808.905823 518.616272,825.432678 
	C515.475708,827.010925 512.913208,827.111389 509.739838,825.520142 
	C476.087463,808.645874 442.442322,791.754333 408.656158,775.150513 
	C364.411041,753.406799 320.041626,731.915955 275.720398,710.327271 
	C274.382874,709.675781 272.947021,709.197144 272.183105,707.730835 
	C272.755798,704.763916 275.134674,704.928528 277.210236,704.706360 
	C306.954956,701.522705 335.954651,695.169983 363.947113,684.465454 
	C373.773041,680.708069 383.189240,676.113098 392.358063,670.982117 
	C393.924408,670.105591 395.531158,669.301147 397.884888,668.059570 
	C409.496429,710.956299 426.916107,749.936951 461.825989,778.539673 
	C464.365204,777.045471 463.626709,775.189209 463.625641,773.664429 
	C463.600983,739.177002 463.915619,704.688110 463.061127,670.203247 
	C462.966431,666.381714 461.403290,664.138733 458.540558,661.988342 
	C429.485199,640.162842 408.619751,612.290039 397.266541,577.649353 
	C392.283936,562.446533 389.431793,546.725586 387.819916,530.804871 
	C387.628693,528.916138 387.111511,526.871399 388.343781,524.999146 
	C390.261108,525.118896 391.331940,526.510925 392.426605,527.661072 
	C405.221161,541.103516 420.913818,549.996887 438.010071,556.618896 
	C464.872833,567.023926 489.236023,581.436218 510.136353,601.394165 
	C513.310059,604.424866 515.525574,604.583923 518.746826,601.275085 
	C539.134583,580.333191 564.183655,566.629822 590.966492,555.880493 
	C608.221313,548.955261 623.550598,539.286987 636.778076,526.250183 
	C637.251282,525.783813 637.729187,525.312317 638.261963,524.920654 
	C638.496582,524.748230 638.874023,524.770081 639.866699,524.559509 
	C640.679443,529.873596 639.584290,535.102478 639.030762,540.167175 
	C634.466736,581.924072 617.187744,617.642883 587.438843,647.332458 
	C581.633057,653.126648 575.219788,658.153076 568.497986,662.795898 
	C566.419250,664.231689 565.149170,665.775513 565.149902,668.452026 
	C565.159668,704.443665 565.106140,740.435364 565.086914,776.427002 
	C565.086548,777.071350 565.315308,777.715759 565.734619,779.932434 
	C582.976624,764.955078 596.001953,747.845215 606.652771,728.927856 
	C617.392578,709.852112 625.067444,689.504272 629.297852,667.693176 
	C633.251099,668.528320 635.723999,671.205383 639.143494,672.814819 
z"/>
<path fill="#000000" opacity="1.000000" stroke="none" 
	d="
M608.722900,436.759644 
	C625.028809,410.606689 638.272705,383.400421 646.751099,354.090607 
	C653.877563,329.454620 656.337280,304.481720 649.587708,279.256439 
	C647.105713,269.980560 643.029236,261.468750 636.961121,253.959839 
	C621.485718,234.809952 600.409424,231.871628 580.508789,246.376495 
	C567.373901,255.950012 558.386963,268.821106 552.137512,283.700195 
	C551.557678,285.080658 551.048950,286.491089 550.466248,287.870270 
	C550.279968,288.311096 549.961182,288.695984 549.428467,289.542908 
	C547.539246,286.332672 548.567200,283.186890 548.906372,280.385040 
	C552.179382,253.345886 565.798218,232.252960 587.399231,216.371002 
	C607.754150,201.405228 632.490295,201.573517 654.224731,215.921616 
	C679.316772,232.486145 694.524902,255.859589 702.455566,284.622375 
	C711.702026,318.157745 708.453979,351.265411 700.143372,384.271881 
	C691.297058,419.406403 676.087708,451.582336 654.369934,480.629608 
	C638.934998,501.273499 622.572449,520.979614 599.507202,533.731873 
	C586.654297,540.837952 572.832336,545.860901 559.579529,552.114624 
	C551.332397,556.006226 543.349609,560.403687 534.325562,564.069397 
	C537.243835,556.944946 539.963745,549.731323 543.115540,542.711670 
	C555.460449,515.216858 572.015930,490.236603 589.285217,465.675873 
	C595.894592,456.275818 602.128479,446.611816 608.722900,436.759644 
z"/>
<path fill="#000000" opacity="1.000000" stroke="none" 
	d="
M479.338928,289.058472 
	C475.565704,283.385651 473.414276,277.079071 470.008362,271.352997 
	C463.669678,260.696381 455.479492,251.928848 445.244385,244.992203 
	C426.571625,232.337173 406.776001,235.202911 392.364685,252.641541 
	C381.921021,265.278992 376.801514,280.058929 375.271393,296.123383 
	C372.195496,328.416382 381.230743,358.317139 393.432434,387.668274 
	C405.875549,417.600037 423.327728,444.535187 442.208862,470.608459 
	C461.440033,497.165070 478.030792,525.163025 490.583191,555.490417 
	C491.697144,558.181824 493.147583,560.813477 493.307434,563.801086 
	C492.709778,563.993103 492.305847,564.266296 492.126434,564.160156 
	C475.303833,554.203735 457.306671,546.723389 439.301453,539.303833 
	C416.974091,530.103333 400.658966,513.744324 385.726074,495.511200 
	C357.445831,460.980896 336.995697,422.457764 326.198181,379.056763 
	C318.823059,349.412109 317.239227,319.388916 324.420044,289.574066 
	C331.475952,260.277924 345.470917,235.010941 371.320984,217.664734 
	C390.185211,205.006271 410.280060,200.634567 431.270142,210.829926 
	C454.375946,222.052933 468.740723,241.295349 476.180084,265.645172 
	C478.485107,273.189697 480.356903,280.972687 479.338928,289.058472 
M344.132324,284.961884 
	C344.278717,283.974976 344.341705,282.966797 344.586578,282.004974 
	C345.452240,278.604706 346.029327,274.846191 342.048279,273.448181 
	C337.833466,271.968048 335.839874,275.487305 334.206573,278.715912 
	C333.759460,279.599731 333.435730,280.566589 333.193848,281.530090 
	C331.979675,286.366425 331.385742,291.349030 329.562042,296.045898 
	C328.670135,298.342926 329.542328,300.695129 330.066986,302.932190 
	C330.797577,306.047180 334.816559,307.410065 336.486603,304.837341 
	C339.412079,300.330353 345.788757,297.415894 343.797638,290.316620 
	C343.417694,288.961914 343.964264,287.347290 344.132324,284.961884 
z"/>
<path fill="#000000" opacity="1.000000" stroke="none" 
	d="
M523.793579,548.678589 
	C520.801147,555.918457 517.965637,562.810669 515.150879,569.652405 
	C512.299377,569.237915 512.169312,567.146729 511.551117,565.569397 
	C500.712067,537.915710 487.844604,511.252838 471.784943,486.248810 
	C460.360626,468.461853 447.670990,451.529846 435.303314,434.386780 
	C431.504639,429.121429 427.925720,423.697510 424.123962,418.434448 
	C421.940369,415.411530 422.881104,413.595703 425.648254,411.491241 
	C445.593353,396.322632 468.170685,387.310547 492.780731,383.895264 
	C517.673096,380.440796 542.243225,382.676971 565.969116,391.506866 
	C578.987549,396.351807 591.035400,403.031128 602.371887,411.068756 
	C605.517517,413.298950 605.815735,415.156036 603.739807,418.414703 
	C593.620544,434.299042 581.947815,449.078400 571.262024,464.554871 
	C552.967529,491.051331 536.645691,518.669006 523.793579,548.678589 
z"/>
<path fill="#000000" opacity="1.000000" stroke="none" 
	d="
M579.694946,690.007446 
	C578.055237,679.780334 581.371338,672.843628 589.489746,666.651611 
	C601.434509,657.541016 610.234070,645.166687 619.429321,633.340759 
	C620.399841,632.092651 620.878723,630.339111 623.830688,629.390625 
	C615.185303,668.990967 605.564392,707.325317 581.570557,740.186157 
	C580.945496,740.092896 580.320374,739.999634 579.695312,739.906372 
	C579.695312,723.439514 579.695312,706.972656 579.694946,690.007446 
z"/>
<path fill="#000000" opacity="1.000000" stroke="none" 
	d="
M411.423096,659.470642 
	C408.240692,649.298767 405.656281,639.398499 403.811127,629.325745 
	C406.045258,628.481812 406.439880,630.144531 407.099579,631.101501 
	C418.310455,647.364136 431.022888,662.222656 447.062225,673.976318 
	C448.558502,675.072815 449.209473,676.403076 449.077606,678.230774 
	C447.602753,698.671875 448.681488,719.145691 448.298370,739.601013 
	C448.295624,739.748840 448.153839,739.894043 447.720123,740.720398 
	C429.412659,716.267456 419.565460,688.478027 411.423096,659.470642 
z"/>
<path fill="#000000" opacity="1.000000" stroke="none" 
	d="
M597.257446,888.920410 
	C596.685425,891.985413 598.784058,895.593140 595.356140,896.991638 
	C591.707825,898.479980 589.685059,895.219116 587.536438,892.959900 
	C584.130188,889.378357 581.387756,885.165161 577.169128,881.761719 
	C575.116882,885.430847 576.159058,889.092712 575.931885,892.557739 
	C575.751526,895.309753 575.436157,897.392456 571.829895,897.381042 
	C568.371216,897.370117 567.637451,895.640259 567.662720,892.692932 
	C567.731079,884.705139 567.634583,876.716003 567.693420,868.728088 
	C567.706055,867.009949 567.083374,864.780029 569.444580,864.038025 
	C571.872070,863.275146 574.012268,863.955383 575.643982,866.056763 
	C577.684570,868.684998 579.740234,871.305481 581.891235,873.843018 
	C583.693604,875.969055 585.642212,877.971191 588.025146,880.573303 
	C589.452820,876.669556 588.924744,873.394165 589.021179,870.197266 
	C589.110596,867.231384 589.185791,864.564453 593.445068,864.573364 
	C597.664856,864.582214 597.280457,867.273132 597.279358,869.960632 
	C597.276794,876.118408 597.266174,882.276184 597.257446,888.920410 
z"/>
<path fill="#000000" opacity="1.000000" stroke="none" 
	d="
M483.020203,887.543579 
	C480.345062,888.882141 481.136536,891.141846 481.118591,892.999268 
	C481.087616,896.203003 479.721161,897.414490 476.532867,897.346802 
	C473.294373,897.278076 472.713654,895.532043 472.732025,892.831177 
	C472.786438,884.835632 472.837067,876.837036 472.664734,868.844360 
	C472.587280,865.253357 473.816071,863.559509 477.556335,863.787964 
	C480.544678,863.970459 483.556946,863.742554 486.548431,863.895630 
	C492.060425,864.177673 497.228455,865.128418 499.424683,871.301453 
	C501.465240,877.036987 500.240356,881.498535 495.128906,886.256592 
	C495.301575,888.342041 497.103790,889.633240 497.816254,891.468750 
	C498.454865,893.113892 500.067261,894.434875 499.487701,896.707886 
	C495.302765,898.161865 491.998871,897.656738 489.503937,893.320557 
	C488.112640,890.902466 487.234833,887.494507 483.020203,887.543579 
M481.350494,878.868469 
	C483.842133,880.209351 486.456085,879.757019 489.003571,879.221008 
	C490.522583,878.901428 491.633881,877.868652 491.727478,876.134888 
	C491.805847,874.682800 491.221863,873.447815 489.897736,872.926941 
	C487.228333,871.876770 484.238220,871.633728 481.779419,872.862366 
	C479.789093,873.856873 480.924927,876.403870 481.350494,878.868469 
z"/>
<path fill="#000000" opacity="1.000000" stroke="none" 
	d="
M552.025085,876.081299 
	C554.575317,883.084961 557.982178,889.391541 559.496826,896.668518 
	C555.611633,897.469299 552.512146,898.453613 550.368225,893.972351 
	C548.954651,891.017761 537.554138,890.985779 535.925171,893.945801 
	C533.658386,898.064819 530.586975,897.561768 526.463867,896.801453 
	C527.420959,891.161011 529.570984,886.179321 531.613953,881.193542 
	C533.438293,876.741394 535.636108,872.441101 537.427002,867.976624 
	C538.595215,865.064453 540.525391,864.009338 543.554565,863.991577 
	C546.699707,863.972961 547.883301,865.894470 548.842407,868.352600 
	C549.808350,870.828369 550.863831,873.269226 552.025085,876.081299 
M541.405273,883.598999 
	C542.971985,883.514893 544.738403,884.285828 546.006042,882.543396 
	C545.514038,880.416260 544.885559,878.417603 542.276550,876.743347 
	C541.681885,879.139893 538.915955,880.514221 541.405273,883.598999 
z"/>
<path fill="#000000" opacity="1.000000" stroke="none" 
	d="
M441.709412,868.772400 
	C442.799683,864.773315 445.548584,864.130127 448.787384,864.134033 
	C451.776825,864.137573 452.605133,866.273438 453.507660,868.497498 
	C456.636566,876.207825 459.832550,883.890869 462.959717,891.601868 
	C463.568146,893.102051 464.577271,894.587891 463.609497,896.618469 
	C460.291626,897.539612 457.240662,898.416931 455.117157,893.901367 
	C453.357391,890.159363 442.576843,890.122437 440.219788,893.531799 
	C437.172363,897.939758 436.900269,898.030212 430.792786,896.365967 
	C433.460205,886.906921 438.074219,878.231018 441.709412,868.772400 
M445.480652,882.844360 
	C447.139984,883.831360 449.343201,884.536194 450.243591,882.661682 
	C451.316376,880.428406 449.985626,878.348083 447.710602,877.035339 
	C446.004883,878.562683 445.151489,880.237793 445.480652,882.844360 
z"/>
<path fill="#000000" opacity="1.000000" stroke="none" 
	d="
M408.483185,877.551758 
	C409.466064,880.056396 410.336761,882.198547 411.514832,885.096924 
	C415.096985,879.581787 416.623901,873.841248 418.882019,868.500366 
	C420.850739,863.843933 423.780823,863.272278 428.134705,864.728638 
	C428.281677,868.512573 426.075592,871.401062 424.812714,874.541138 
	C422.148041,881.166748 419.174347,887.667419 416.411163,894.254456 
	C415.522736,896.372253 414.140930,897.337585 411.826508,897.279907 
	C409.853180,897.230835 408.231537,896.869507 407.375977,894.841797 
	C403.255768,885.076904 399.110931,875.322327 394.985901,865.590210 
	C401.190979,862.656921 403.401276,863.513489 405.476715,869.228271 
	C406.440521,871.882263 407.406189,874.535645 408.483185,877.551758 
z"/>
<path fill="#000000" opacity="1.000000" stroke="none" 
	d="
M604.276001,867.249023 
	C604.777100,864.680176 606.545837,864.513672 608.198608,864.444824 
	C615.014343,864.160522 621.834229,863.975159 628.652039,863.738647 
	C631.129456,863.652710 632.284058,864.744568 632.308167,867.296814 
	C632.332642,869.880127 631.571167,871.647644 628.674438,871.353821 
	C622.827271,870.760742 621.828613,873.853394 622.239807,878.849976 
	C622.634338,883.645142 622.265564,888.499573 622.331482,893.326599 
	C622.367676,895.974548 621.401001,897.308533 618.558838,897.313232 
	C615.808533,897.317688 614.634399,896.216675 614.666992,893.462463 
	C614.730103,888.136047 614.480652,882.801575 614.683838,877.482666 
	C614.848389,873.175842 613.638489,870.739563 608.798523,871.305420 
	C606.229004,871.605774 604.061462,870.982544 604.276001,867.249023 
z"/>
<path fill="#000000" opacity="1.000000" stroke="none" 
	d="
M515.989868,897.230042 
	C511.729706,897.946594 510.160065,896.517822 510.231354,892.473145 
	C510.371826,884.506836 510.144257,876.531860 509.959991,868.563049 
	C509.891052,865.580872 510.719940,863.827393 514.111511,863.826721 
	C517.434631,863.826111 518.382996,865.431580 518.334900,868.481750 
	C518.206665,876.619019 518.277344,884.759216 518.203857,892.897705 
	C518.189453,894.497864 518.430908,896.326721 515.989868,897.230042 
z"/>
</svg>